<svg xmlns="http://www.w3.org/2000/svg" width="24" height="24" fill="none" viewBox="0 0 24 24">
  <g clip-path="url(#a)">
    <path fill="#2196F3" d="M24 12c0 2.369-.703 4.672-2.033 6.662a.936.936 0 1 1-1.559-1.043 10.082 10.082 0 0 0 1.398-8.151.938.938 0 0 1 1.816-.467c.25.974.378 1.984.378 2.999Zm-6.762 8.667A10.107 10.107 0 0 1 12 22.125C6.417 22.125 1.875 17.583 1.875 12S6.417 1.875 12 1.875c2.067 0 4.055.619 5.748 1.789a.938.938 0 0 0 1.066-1.543A11.933 11.933 0 0 0 12 0a11.922 11.922 0 0 0-8.485 3.515A11.922 11.922 0 0 0 0 12c0 3.205 1.248 6.219 3.515 8.485A11.921 11.921 0 0 0 12 24a11.98 11.98 0 0 0 6.21-1.73.937.937 0 1 0-.973-1.603Zm-5.148-5.949a.535.535 0 0 1-.394-.149l-4.91-4.655a.937.937 0 1 0-1.29 1.36l4.909 4.655a2.394 2.394 0 0 0 1.76.663 2.396 2.396 0 0 0 1.735-.84l9.893-12.305a.937.937 0 1 0-1.461-1.175l-9.873 12.28a.537.537 0 0 1-.369.166Z"/>
  </g>
  <defs>
    <clipPath id="a">
      <path fill="#fff" d="M0 0h24v24H0z"/>
    </clipPath>
  </defs>
</svg>
