<svg xmlns="http://www.w3.org/2000/svg" width="20" height="21" fill="none" viewBox="0 0 20 21">
  <path fill="#000" d="M11.671 12.57a3.004 3.004 0 0 1-3.342 0L.133 7.104A2.977 2.977 0 0 1 0 7.011v8.953a1.84 1.84 0 0 0 1.841 1.841H18.16A1.84 1.84 0 0 0 20 15.964V7.01a2.942 2.942 0 0 1-.134.094l-8.195 5.464Z"/>
  <path fill="#000" d="m.783 6.13 8.196 5.464a1.839 1.839 0 0 0 2.042 0l8.196-5.464c.49-.327.783-.873.783-1.464 0-1.015-.826-1.84-1.84-1.84H1.84C.827 2.826 0 3.65 0 4.667c0 .59.293 1.136.783 1.463Z"/>
</svg>
