<svg xmlns="http://www.w3.org/2000/svg" width="29" height="32" fill="none" viewBox="0 0 29 32">
  <path fill="#00296C" fill-rule="evenodd" d="m18.102 28.525-2.583 1.47c-1.038.478-2.168.412-3.156-.162l-9.718-5.61A3.408 3.408 0 0 1 .91 21.217V10c0-1.267.64-2.371 1.736-3.007l9.718-5.61a3.42 3.42 0 0 1 3.472 0l2.25 1.3a1.874 1.874 0 0 1 1.852-1.6h2.11c1.03 0 1.873.84 1.873 1.874v3.098c1.661.959 3.368 1.636 3.368 3.949v11.22c0 1.267-.64 2.372-1.736 3.007l-7.45 4.294Zm3.413-.921-5.137 2.965h.013a4.347 4.347 0 0 1-4.576 0l-9.626-5.557A4.315 4.315 0 0 1 0 21.221V10a4.32 4.32 0 0 1 2.189-3.792l9.717-5.61a4.311 4.311 0 0 1 4.381 0l1.354.78C18.671-.115 20.253.17 22.043.17a2.785 2.785 0 0 1 2.782 2.783v2.57l1.18.681a4.315 4.315 0 0 1 2.188 3.792v11.22a4.319 4.319 0 0 1-2.188 3.792l-4.49 2.596Z" clip-rule="evenodd"/>
  <path fill="#2196F3" d="M20 15.581v10.905l.652-.373V15.58a.324.324 0 0 0-.324-.324.325.325 0 0 0-.328.324Zm3.102-9.057V2.957c0-.582-.474-1.055-1.055-1.055h-2.11c-.581 0-1.055.473-1.055 1.055V4.09l-3.455-1.994a2.598 2.598 0 0 0-2.653 0l-9.718 5.61a2.594 2.594 0 0 0-1.329 2.297v11.22a2.58 2.58 0 0 0 1.33 2.297l3.542 2.048v-9.996a.38.38 0 0 1 .377-.378h.05v-1.383c-.398-.49-.897-.68-1.586-.261a.26.26 0 0 1-.262.261h-.785a.26.26 0 0 1-.261-.261v-2.239a.26.26 0 0 1 .261-.261h.785a.26.26 0 0 1 .262.261c.51.39 1.022.42 1.528-.261h1.516v.004c1.628.091 3.044.934 3.609 2.16-.042-.05-.08.086-.129.045-.478-.444-1.233-.843-1.964-.723-.706.116-1.28.52-1.52 1.05v1.608h.037c.208 0 .378.17.382.382v11.321l3.87 2.234c.092.054.183.1.279.14V22.94l-.627-.56-1.1-.1c-.408-.038-.74-.333-.74-.74v-.739h6.91v.74c0 .406-.336.705-.739.739l-1.1.1-.627.56v6.383a2.92 2.92 0 0 0 .398-.191l3.75-2.168V15.058a2.238 2.238 0 0 1-1.125-1.964c0-.868.523-1.678 1.279-2.048v2.222l.996.727.997-.727v-2.222a2.316 2.316 0 0 1 1.28 2.048c0 .868-.453 1.57-1.126 1.964v10.573l3.663-2.114a2.594 2.594 0 0 0 1.328-2.296V10c0-.976-.481-1.81-1.328-2.297l-2.035-1.179Zm-6.288 9.51h.681v4.443h-6.914v-4.443h.947l.224 1.973.287-1.973h1.935l.228 2.799.266-2.8h.926l.29 1.151.1-1.15h.598l.125 2.799.307-2.8Z"/>
</svg>
