<svg xmlns="http://www.w3.org/2000/svg" width="147" height="40" fill="none" viewBox="0 0 147 40">
  <path fill="#00296C" fill-rule="evenodd" d="m23.193 36.548-3.31 1.884c-1.33.612-2.777.526-4.043-.208L3.39 31.036a4.368 4.368 0 0 1-2.225-3.852V12.812c0-1.622.82-3.038 2.224-3.852l12.45-7.188a4.38 4.38 0 0 1 4.449 0l2.884 1.665a2.401 2.401 0 0 1 2.373-2.048h2.703c1.32 0 2.4 1.074 2.4 2.4v3.969c2.128 1.229 4.315 2.096 4.315 5.06v14.376c0 1.623-.82 3.038-2.224 3.853l-9.546 5.501Zm4.374-1.181-6.582 3.799h.016a5.57 5.57 0 0 1-5.864 0l-12.333-7.12A5.524 5.524 0 0 1 0 27.19V12.812a5.533 5.533 0 0 1 2.804-4.857L15.254.766a5.524 5.524 0 0 1 5.614 0l1.735 1C23.921-.149 25.948.218 28.242.218a3.569 3.569 0 0 1 3.564 3.565v3.294l1.512.872c1.766 1.022 2.803 2.82 2.803 4.858v14.377a5.533 5.533 0 0 1-2.803 4.857l-5.752 3.326Z" clip-rule="evenodd"/>
  <path fill="#2196F3" d="M25.625 19.963v13.973l.835-.48V19.964a.416.416 0 0 0-.415-.415.417.417 0 0 0-.42.416ZM29.599 8.36V3.79c0-.745-.607-1.352-1.351-1.352h-2.703c-.745 0-1.352.607-1.352 1.351v1.453l-4.427-2.554a3.328 3.328 0 0 0-3.4 0L3.916 9.875a3.324 3.324 0 0 0-1.703 2.943v14.376c0 1.25.617 2.32 1.703 2.943l4.538 2.623V19.953c0-.266.219-.484.485-.484h.063v-1.772c-.51-.628-1.149-.873-2.032-.335a.334.334 0 0 1-.335.335H5.629a.334.334 0 0 1-.335-.335v-2.868c0-.187.149-.335.335-.335h1.006c.186 0 .335.148.335.335.654.5 1.309.537 1.958-.335h1.942v.005c2.086.117 3.9 1.197 4.624 2.767-.053-.064-.101.111-.165.058-.612-.57-1.58-1.08-2.517-.926-.904.15-1.639.666-1.947 1.347v2.059h.048c.266 0 .484.218.49.49v14.503l4.958 2.863c.117.07.234.128.357.181v-8.114l-.804-.718-1.41-.128c-.521-.048-.947-.426-.947-.947v-.947h8.854v.947c0 .521-.431.904-.947.947l-1.41.128-.804.718v8.178c.176-.07.346-.15.511-.245l4.805-2.777V19.293a2.868 2.868 0 0 1-1.442-2.517c0-1.112.67-2.15 1.639-2.623V17l1.276.931L27.317 17v-2.847a2.968 2.968 0 0 1 1.64 2.623c0 1.112-.58 2.012-1.443 2.517V32.84l4.693-2.709a3.324 3.324 0 0 0 1.703-2.942V12.812c0-1.25-.617-2.32-1.703-2.942L29.6 8.359Zm-8.055 12.184h.872v5.694h-8.859v-5.694h1.213l.287 2.528.368-2.528h2.48l.292 3.587.34-3.587h1.187l.372 1.474.128-1.474h.766l.16 3.587.394-3.587Z"/>
  <path fill="#00296C" d="M44.68 31V13.72h2.892v7.272h8.184V13.72h2.88V31h-2.88v-7.296h-8.184V31H44.68Zm22.564.36c-1.296 0-2.428-.292-3.396-.876a6.017 6.017 0 0 1-2.256-2.412c-.528-1.032-.792-2.216-.792-3.552 0-1.36.272-2.552.816-3.576a6.017 6.017 0 0 1 2.268-2.4c.968-.576 2.088-.864 3.36-.864 1.304 0 2.44.292 3.408.876a5.998 5.998 0 0 1 2.256 2.424c.536 1.024.804 2.204.804 3.54 0 1.344-.272 2.532-.816 3.564a6.017 6.017 0 0 1-2.256 2.412c-.968.576-2.1.864-3.396.864Zm0-2.712c1.152 0 2.008-.384 2.568-1.152.56-.768.84-1.76.84-2.976 0-1.256-.284-2.256-.852-3-.568-.752-1.42-1.128-2.556-1.128-.776 0-1.416.176-1.92.528-.496.344-.864.828-1.104 1.452-.24.616-.36 1.332-.36 2.148 0 1.256.284 2.26.852 3.012.576.744 1.42 1.116 2.532 1.116Zm13.492 2.724c-.96 0-1.752-.16-2.376-.48-.624-.32-1.12-.728-1.488-1.224a5.328 5.328 0 0 1-.816-1.584 8.478 8.478 0 0 1-.348-1.584 13.49 13.49 0 0 1-.072-1.224V18.04h2.928v6.24c0 .4.028.852.084 1.356.056.496.184.976.384 1.44.208.456.512.832.912 1.128.408.296.956.444 1.644.444.368 0 .732-.06 1.092-.18.36-.12.684-.324.972-.612.296-.296.532-.7.708-1.212.176-.512.264-1.16.264-1.944l1.716.732c0 1.104-.216 2.104-.648 3a5.103 5.103 0 0 1-1.884 2.148c-.832.528-1.856.792-3.072.792ZM84.972 31v-4.02h-.348v-8.94h2.904V31h-2.556Zm10.452.36c-1.6 0-2.9-.36-3.9-1.08-1-.72-1.608-1.732-1.824-3.036l2.952-.456c.152.64.488 1.144 1.008 1.512.52.368 1.176.552 1.968.552.696 0 1.232-.136 1.608-.408.384-.28.576-.66.576-1.14 0-.296-.072-.532-.216-.708-.136-.184-.44-.36-.912-.528-.472-.168-1.196-.38-2.172-.636-1.088-.288-1.952-.596-2.592-.924-.64-.336-1.1-.732-1.38-1.188-.28-.456-.42-1.008-.42-1.656 0-.808.212-1.512.636-2.112.424-.6 1.016-1.06 1.776-1.38.76-.328 1.656-.492 2.688-.492 1.008 0 1.9.156 2.676.468.784.312 1.416.756 1.896 1.332a3.99 3.99 0 0 1 .888 2.028l-2.952.528a1.859 1.859 0 0 0-.756-1.308c-.424-.32-.992-.5-1.704-.54-.68-.04-1.228.064-1.644.312-.416.24-.624.58-.624 1.02 0 .248.084.46.252.636.168.176.504.352 1.008.528.512.176 1.272.392 2.28.648 1.032.264 1.856.568 2.472.912.624.336 1.072.74 1.344 1.212.28.472.42 1.044.42 1.716 0 1.304-.476 2.328-1.428 3.072-.944.744-2.252 1.116-3.924 1.116Zm13.392 0c-1.312 0-2.464-.284-3.456-.852a6.067 6.067 0 0 1-2.328-2.364c-.552-1.008-.828-2.168-.828-3.48 0-1.416.272-2.644.816-3.684.544-1.048 1.3-1.86 2.268-2.436.968-.576 2.088-.864 3.36-.864 1.344 0 2.484.316 3.42.948.944.624 1.644 1.508 2.1 2.652.456 1.144.628 2.492.516 4.044h-2.868v-1.056c-.008-1.408-.256-2.436-.744-3.084-.488-.648-1.256-.972-2.304-.972-1.184 0-2.064.368-2.64 1.104-.576.728-.864 1.796-.864 3.204 0 1.312.288 2.328.864 3.048.576.72 1.416 1.08 2.52 1.08.712 0 1.324-.156 1.836-.468.52-.32.92-.78 1.2-1.38l2.856.864c-.496 1.168-1.264 2.076-2.304 2.724a6.303 6.303 0 0 1-3.42.972Zm-4.464-6.036V23.14h8.916v2.184h-8.916Z"/>
  <path fill="#2196F3" d="M116.882 31V13.72h10.404v2.892h-7.512v4.308h6.072v2.88h-6.072V31h-2.892Zm12.322-14.928V13.42h2.892v2.652h-2.892Zm0 14.928V18.04h2.892V31h-2.892Zm4.567 0 4.74-6.552-4.644-6.408h3.408l2.916 4.14 2.868-4.14h3.408l-4.644 6.408L146.587 31h-3.408l-2.988-4.284L137.179 31h-3.408Z"/>
</svg>
