<svg xmlns="http://www.w3.org/2000/svg" width="24" height="24" fill="none" viewBox="0 0 24 24">
  <g clip-path="url(#a)">
    <path fill="#000" d="M22.526 16.945c-.04-.032-4.531-3.247-5.75-3.036-.586.103-.921.502-1.592 1.302a22.85 22.85 0 0 1-.57.657 10.275 10.275 0 0 1-6.483-6.483c.221-.201.53-.462.662-.573.796-.667 1.195-1.002 1.298-1.589.213-1.214-3.003-5.71-3.036-5.75A1.717 1.717 0 0 0 5.774.75C4.471.75.75 5.577.75 6.39c0 .048.068 4.851 5.991 10.876 6.018 5.916 10.821 5.984 10.868 5.984.814 0 5.641-3.721 5.641-5.025a1.715 1.715 0 0 0-.724-1.28Zm-5 4.8c-.655-.053-4.685-.585-9.724-5.536-4.977-5.066-5.495-9.108-5.547-9.734a20.29 20.29 0 0 1 3.53-4.171c.03.03.07.075.12.134a26.543 26.543 0 0 1 2.681 4.547c-.24.242-.495.47-.762.683A7.524 7.524 0 0 0 6.69 8.735l-.182.255.054.308a8.56 8.56 0 0 0 .723 1.98 11.782 11.782 0 0 0 5.437 5.436 8.54 8.54 0 0 0 1.98.724l.309.054.255-.182a7.59 7.59 0 0 0 1.07-1.138c.235-.281.55-.655.668-.761a26.374 26.374 0 0 1 4.558 2.684c.063.052.106.093.136.119a20.272 20.272 0 0 1-4.171 3.53v.002Z"/>
  </g>
  <defs>
    <clipPath id="a">
      <path fill="#fff" d="M0 0h24v24H0z"/>
    </clipPath>
  </defs>
</svg>
