<svg xmlns="http://www.w3.org/2000/svg" width="32" height="24" fill="none" viewBox="0 0 32 24">
  <path fill="#000" d="M26.6 22.582H3.901a4.038 4.038 0 0 1-2.754-1.081A3.59 3.59 0 0 1 0 18.903V5.525a3.59 3.59 0 0 1 1.147-2.597A4.038 4.038 0 0 1 3.9 1.846h22.7a4.038 4.038 0 0 1 2.754 1.082 3.59 3.59 0 0 1 1.147 2.597v13.378a3.59 3.59 0 0 1-1.147 2.598 4.039 4.039 0 0 1-2.755 1.081ZM3.901 3.852c-.47 0-.921.177-1.254.49a1.63 1.63 0 0 0-.519 1.183v13.378c0 .444.187.869.52 1.183.332.313.783.49 1.253.49h22.7c.47 0 .92-.177 1.253-.49.333-.314.52-.74.52-1.183V5.525c0-.443-.187-.869-.52-1.182a1.829 1.829 0 0 0-1.254-.49H3.901Z"/>
  <path fill="#000" d="M15.253 14.02a4.824 4.824 0 0 1-2.341-.602L.527 6.474c-.232-.136-.4-.35-.47-.597a.965.965 0 0 1 .087-.74c.141-.221.369-.381.634-.446s.546-.03.784.098l12.4 6.93c.376.216.808.33 1.248.33.44 0 .872-.114 1.248-.33l12.4-6.93c.238-.128.52-.163.784-.098.265.065.493.225.634.446a.965.965 0 0 1 .088.74c-.071.248-.24.461-.47.597l-12.3 6.944a4.824 4.824 0 0 1-2.341.602Z"/>
</svg>
