<svg xmlns="http://www.w3.org/2000/svg" width="24" height="24" fill="none" viewBox="0 0 24 24">
  <g clip-path="url(#a)">
    <path fill="#000" d="M12 0C5.374 0 0 5.374 0 12s5.374 12 12 12 12-5.374 12-12S18.626 0 12 0Zm.254 18.987h-.003a7.18 7.18 0 0 1-3.432-.874l-3.807.998 1.019-3.72a7.164 7.164 0 0 1-.959-3.59c.002-3.959 3.224-7.18 7.182-7.18a7.14 7.14 0 0 1 5.08 2.106 7.136 7.136 0 0 1 2.102 5.08c-.001 3.959-3.224 7.18-7.182 7.18Z"/>
    <path fill="#000" d="M12.258 5.835a5.978 5.978 0 0 0-5.972 5.967c0 1.128.315 2.226.913 3.176l.142.226-.604 2.202 2.26-.592.218.129a5.96 5.96 0 0 0 3.038.832h.003a5.977 5.977 0 0 0 5.97-5.968 5.93 5.93 0 0 0-1.748-4.222 5.93 5.93 0 0 0-4.22-1.75Zm3.511 8.533c-.15.419-.866.802-1.21.853-.31.046-.701.066-1.131-.07a10.34 10.34 0 0 1-1.023-.379c-1.8-.777-2.976-2.589-3.066-2.709-.09-.12-.733-.973-.733-1.856 0-.883.464-1.317.628-1.496a.66.66 0 0 1 .479-.225c.12 0 .24.001.344.007.11.005.258-.042.404.308.15.359.508 1.242.553 1.332.045.09.075.194.015.314s-.259.378-.449.614c-.08.098-.183.186-.078.366.104.18.464.767.998 1.242.685.612 1.264.801 1.443.89.18.09.284.076.389-.044.104-.12.448-.524.568-.704.12-.18.24-.15.404-.09.164.06 1.047.495 1.226.584.18.09.299.135.344.21.045.075.045.434-.105.853Z"/>
  </g>
  <defs>
    <clipPath id="a">
      <path fill="#fff" d="M0 0h24v24H0z"/>
    </clipPath>
  </defs>
</svg>
