<?xml version="1.0" encoding="UTF-8" standalone="no"?>
<svg
   width="24"
   height="24"
   fill="none"
   viewBox="0 0 24 24"
   version="1.1"
   id="svg4"
   xmlns="http://www.w3.org/2000/svg"
   xmlns:svg="http://www.w3.org/2000/svg">
  <defs
     id="defs8" />
  <path
     fill="#2196f3"
     d="m 6,19.2 a 1.2,1.2 0 0 0 1.2,1.2 h 15.6 a 1.2,1.2 0 0 0 0,-2.4 H 7.2 A 1.2,1.2 0 0 0 6,19.2 Z m 16.8,-6 H 1.2 a 1.2,1.2 0 0 1 0,-2.4 h 21.6 a 1.2,1.2 0 0 1 0,2.4 z M 22.8,6 H 12 a 1.2,1.2 0 0 1 0,-2.4 h 10.8 a 1.2,1.2 0 0 1 0,2.4 z"
     id="path2" />
  <path
     style="fill:#000000;stroke-width:0.0286396"
     d="m 23.181519,10.884237 c 0.311814,0.107339 0.545787,0.317342 0.697566,0.626103 0.07114,0.144711 0.07796,0.187399 0.07796,0.487941 0,0.300542 -0.0068,0.34323 -0.07796,0.487941 -0.149604,0.304337 -0.374141,0.50788 -0.689227,0.624785 l -0.165752,0.0615 H 12.000001 0.97589798 l -0.165753,-0.0615 c -0.315086,-0.116905 -0.539622,-0.320448 -0.68922699,-0.624785 -0.07114,-0.144711 -0.07796001,-0.187399 -0.07796001,-0.487941 0,-0.302617 0.0065,-0.342591 0.08006,-0.492378 0.12405801,-0.252626 0.306047,-0.435183 0.557935,-0.559673 l 0.218225,-0.107854 11.05637802,-0.0063 11.056379,-0.0063 z"
     id="path239" />
  <path
     style="fill:#000000;stroke-width:0.0286396"
     d="M 11.713604,5.9467293 C 11.375518,5.8546913 11.087818,5.6165726 10.931803,5.299661 c -0.08637,-0.1754382 -0.09171,-0.2046629 -0.09171,-0.5019228 0,-0.3013323 0.0044,-0.3243627 0.09661,-0.5081394 0.106588,-0.212387 0.322716,-0.4375994 0.513211,-0.5347825 0.300739,-0.1534254 0.0083,-0.1462244 5.938941,-0.1462244 3.909508,0 5.535099,0.00915 5.643147,0.031753 0.47461,0.099298 0.870365,0.5180379 0.932652,0.9868177 0.08041,0.6051918 -0.28737,1.1634831 -0.86566,1.314069 -0.151553,0.039464 -0.792311,0.044232 -5.713604,0.042516 -4.279847,-0.00149 -5.572276,-0.00993 -5.671787,-0.037018 z"
     id="path344" />
  <path
     style="fill:#000000;stroke-width:0.0286396"
     d="m 6.9607246,20.360123 c -0.639061,-0.125272 -1.0745723,-0.818106 -0.9074734,-1.443655 0.114589,-0.428974 0.4332614,-0.74886 0.8589261,-0.862198 0.1232403,-0.03281 1.4519509,-0.03933 8.0818057,-0.03961 7.079186,-3.04e-4 7.952714,0.0045 8.105012,0.04411 0.579976,0.151024 0.946306,0.707112 0.86566,1.314069 -0.06229,0.468779 -0.458042,0.887519 -0.932652,0.986817 -0.186203,0.03896 -15.8725982,0.03941 -16.0712784,4.68e-4 z"
     id="path346" />
</svg>
